HIERARCHY
ROOT Hips
{
	OFFSET 0.000000 0.000000 0.000000
	CHANNELS 6 Xposition Yposition Zposition Zrotation Yrotation Xrotation 
	JOINT LowerBack
	{
		OFFSET 0.000000 0.000000 0.000000
		CHANNELS 3 Zrotation Yrotation Xrotation
		JOINT Spine
		{
			OFFSET 0.028270 2.035590 -0.193380
			CHANNELS 3 Zrotation Yrotation Xrotation
			JOINT Spine1
			{
				OFFSET 0.056720 2.048850 -0.042750
				CHANNELS 3 Zrotation Yrotation Xrotation
				JOINT Neck
				{
					OFFSET 0.000000 0.000000 0.000000
					CHANNELS 3 Zrotation Yrotation Xrotation
					JOINT Neck1
					{
						OFFSET -0.054170 1.746240 0.172020
						CHANNELS 3 Zrotation Yrotation Xrotation
						JOINT Head
						{
							OFFSET 0.104070 1.761360 -0.123970
							CHANNELS 3 Zrotation Yrotation Xrotation
							End Site
							{
								OFFSET 0.000000 0.000000 0.000000
							}
						}
					}
				}
				JOINT LeftShoulder
				{
					OFFSET 0.000000 0.000000 0.000000
					CHANNELS 3 Zrotation Yrotation Xrotation
					JOINT LeftArm
					{
						OFFSET 3.362410 1.200890 -0.311210
						CHANNELS 3 Zrotation Yrotation Xrotation
						JOINT LeftForeArm
						{
							OFFSET 4.983000 -0.000000 -0.000000
							CHANNELS 3 Zrotation Yrotation Xrotation
							JOINT LeftHand
							{
								OFFSET 3.483560 -0.000000 -0.000000
								CHANNELS 3 Zrotation Yrotation Xrotation
								JOINT LeftFingerBase
								{
									OFFSET 0.000000 0.000000 0.000000
									CHANNELS 3 Zrotation Yrotation Xrotation
									JOINT LeftHandIndex1
									{
										OFFSET 0.715260 -0.000000 -0.000000
										CHANNELS 3 Zrotation Yrotation Xrotation
										End Site
										{
											OFFSET 0.000000 0.000000 0.000000
										}
									}
								}
								JOINT LThumb
								{
									OFFSET 0.000000 0.000000 0.000000
									CHANNELS 3 Zrotation Yrotation Xrotation
									End Site
									{
										OFFSET 0.000000 0.000000 0.000000
									}
								}
							}
						}
					}
				}
				JOINT RightShoulder
				{
					OFFSET 0.000000 0.000000 0.000000
					CHANNELS 3 Zrotation Yrotation Xrotation
					JOINT RightArm
					{
						OFFSET -3.136600 1.374050 -0.404650
						CHANNELS 3 Zrotation Yrotation Xrotation
						JOINT RightForeArm
						{
							OFFSET -5.241900 -0.000000 -0.000000
							CHANNELS 3 Zrotation Yrotation Xrotation
							JOINT RightHand
							{
								OFFSET -3.444170 -0.000000 -0.000000
								CHANNELS 3 Zrotation Yrotation Xrotation
								JOINT RightFingerBase
								{
									OFFSET 0.000000 0.000000 0.000000
									CHANNELS 3 Zrotation Yrotation Xrotation
									JOINT RightHandIndex1
									{
										OFFSET -0.622530 -0.000000 -0.000000
										CHANNELS 3 Zrotation Yrotation Xrotation
										End Site
										{
											OFFSET 0.000000 0.000000 0.000000
										}
									}
								}
								JOINT RThumb
								{
									OFFSET 0.000000 0.000000 0.000000
									CHANNELS 3 Zrotation Yrotation Xrotation
									End Site
									{
										OFFSET 0.000000 0.000000 0.000000
									}
								}
							}
						}
					}
				}
			}
		}
	}
}
}
MOTION
Frames: 9
Frame Time: 0.008333
1.144537 17.383727 0.832354 -173.655389 -33.842600 -174.149498 1.214516 -5.875012 -10.021143 -0.260239 -6.190085 -4.784294 -7.269328 -6.045140 -1.454554 16.240004 -13.482102 -2.692248 -1.705990 -0.209883 1.443660 0.000000 0.000000 0.000000 13.593408 -9.976501 5.030048 -19.530149 1.003677 -29.805841 -0.759359 -46.102829 -0.112482 13.462652 -2.790112 -0.398641 -0.225618 0.540173 0.000000 0.000000 0.000000 0.000000 0.000000 0.000000 0.000000 9.131221 -10.067454 -6.841885 92.350746 52.276139 43.268921 -178.542491 65.895378 179.768292 -20.653931 10.014359 -2.041957 0.474847 -0.920149 -0.000000 0.000000 0.000000 0.000000 0.000000 0.000000 0.000000 
1.150119 17.379241 0.851991 -173.567165 -33.870521 -174.217745 0.946114 -6.080281 -9.792620 -0.270245 -6.353505 -4.682815 -7.156626 -6.212670 -1.331023 16.816028 -14.005161 -2.856054 -1.547888 -0.197224 1.399518 0.000000 0.000000 0.000000 15.214382 -10.904629 5.054336 -16.372575 -1.327390 -32.780595 -0.825468 -36.744041 -0.111950 13.174267 -3.090242 -0.428229 -0.243686 0.555797 -0.000000 0.000000 0.000000 0.000000 0.000000 0.000000 0.000000 9.394957 -11.097770 -6.859234 91.761371 52.200539 42.011135 -178.381906 65.731312 179.768281 -20.647189 9.757716 -1.988101 0.454694 -0.902403 -0.000000 0.000000 0.000000 0.000000 0.000000 0.000000 0.000000 
1.154282 17.376576 0.871018 -173.429124 -33.952900 -174.257862 0.650733 -6.306432 -9.537063 -0.282294 -6.537368 -4.592708 -7.037906 -6.405651 -1.267061 17.449501 -14.520419 -3.027876 -1.387867 -0.184349 1.353859 0.000000 0.000000 0.000000 16.853338 -11.846632 5.043438 -13.238226 -3.229413 -36.105039 -0.876391 -27.733497 -0.106610 12.587401 -3.409280 -0.447492 -0.264493 0.565602 -0.000000 0.000000 0.000000 0.000000 0.000000 0.000000 0.000000 9.727786 -12.092597 -6.856182 91.195380 52.123238 40.828318 -178.226880 65.560630 179.768423 -20.632424 9.510287 -1.935713 0.435653 -0.886036 -0.000000 0.000000 0.000000 0.000000 0.000000 0.000000 0.000000 
1.156638 17.376280 0.888688 -173.258533 -34.080428 -174.259285 0.339086 -6.546307 -9.270780 -0.299112 -6.736783 -4.517529 -6.931389 -6.618935 -1.257529 18.120323 -15.021610 -3.201547 -1.235400 -0.171939 1.308810 0.000000 0.000000 0.000000 18.489913 -12.784599 4.986377 -10.158900 -4.616470 -39.743298 -0.914831 -19.455679 -0.096424 11.730327 -3.761449 -0.455604 -0.282805 0.567215 -0.000000 0.000000 0.000000 0.000000 0.000000 0.000000 0.000000 10.141616 -13.045048 -6.829182 90.636411 52.058925 39.739954 -178.082532 65.385314 179.768766 -20.609235 9.273478 -1.885090 0.418328 -0.871154 -0.000000 0.000000 0.000000 0.000000 0.000000 0.000000 0.000000 
1.156702 17.378692 0.904548 -173.075073 -34.243604 -174.218882 0.032525 -6.791335 -9.013591 -0.320610 -6.946384 -4.458230 -6.853647 -6.845813 -1.287626 18.789247 -15.500183 -3.370413 -1.100209 -0.160698 1.266447 0.000000 0.000000 0.000000 20.128707 -13.696984 4.880736 -7.252416 -5.437965 -43.565495 -0.935987 -12.258361 -0.083329 10.729888 -4.094135 -0.449546 -0.294292 0.559787 -0.000000 0.000000 0.000000 0.000000 0.000000 0.000000 0.000000 10.621079 -13.943459 -6.782228 90.093374 52.011365 38.772694 -177.953132 65.208967 179.769351 -20.575586 9.051469 -1.836934 0.403145 -0.857894 -0.000000 0.000000 0.000000 0.000000 0.000000 0.000000 0.000000 
1.154261 17.383882 0.918284 -172.903982 -34.431737 -174.137234 -0.237975 -7.033975 -8.786050 -0.342284 -7.161538 -4.412698 -6.811632 -7.079390 -1.332474 19.398578 -15.943268 -3.529912 -0.989399 -0.151147 1.228009 0.000000 0.000000 0.000000 21.750103 -14.533432 4.741899 -4.642856 -5.727229 -47.230003 -0.943124 -6.371540 -0.070259 9.768192 -4.302677 -0.427504 -0.298999 0.543664 -0.000000 0.000000 0.000000 0.000000 0.000000 0.000000 0.000000 11.118313 -14.770629 -6.729937 89.615872 51.971364 37.972148 -177.840487 65.043893 179.770233 -20.525037 8.856391 -1.793051 0.390023 -0.846426 -0.000000 0.000000 0.000000 0.000000 0.000000 0.000000 0.000000 
1.149404 17.391460 0.929913 -172.765553 -34.633283 -174.023019 -0.450239 -7.268261 -8.602860 -0.358733 -7.377230 -4.377052 -6.799498 -7.312326 -1.367147 19.895109 -16.335466 -3.676715 -0.905016 -0.143490 1.194213 0.000000 0.000000 0.000000 23.357902 -15.250240 4.592111 -2.504032 -5.581903 -50.225660 -0.955786 -1.922923 -0.059501 8.989691 -4.259158 -0.388994 -0.301398 0.519694 -0.000000 0.000000 0.000000 0.000000 0.000000 0.000000 0.000000 11.573340 -15.509227 -6.689164 89.254795 51.920948 37.366113 -177.741894 64.896574 179.771404 -20.453235 8.701152 -1.755348 0.378488 -0.836833 -0.000000 0.000000 0.000000 0.000000 0.000000 0.000000 0.000000 
1.142401 17.400831 0.939581 -172.675434 -34.837000 -173.884914 -0.586733 -7.489383 -8.468803 -0.361455 -7.588116 -4.343651 -6.795873 -7.536987 -1.358481 20.234851 -16.671454 -3.822715 -0.842617 -0.137223 1.161315 0.000000 0.000000 0.000000 24.878537 -15.667493 4.456398 -0.820148 -5.381780 -52.296814 -0.983409 1.275167 -0.051608 8.437979 -4.005613 -0.344438 -0.305380 0.491426 -0.000000 0.000000 0.000000 0.000000 0.000000 0.000000 0.000000 11.920233 -16.156189 -6.687388 89.081049 51.848543 36.996595 -177.650247 64.773574 179.772881 -20.355155 8.600561 -1.726136 0.367634 -0.828987 -0.000000 0.000000 0.000000 0.000000 0.000000 0.000000 0.000000 
1.133899 17.411334 0.947539 -172.638803 -35.038270 -173.734153 -0.656474 -7.691413 -8.385425 -0.351413 -7.786503 -4.313730 -6.791800 -7.745319 -1.314032 20.406258 -16.932467 -3.951846 -0.798830 -0.132475 1.133641 0.000000 0.000000 0.000000 26.347887 -15.875176 4.339683 0.283570 -5.142211 -53.576107 -1.021317 3.239869 -0.046210 8.020628 -3.581570 -0.295250 -0.310041 0.463428 -0.000000 0.000000 0.000000 0.000000 0.000000 0.000000 0.000000 12.129084 -16.697328 -6.720169 89.077602 51.721115 36.810297 -177.559274 64.668257 179.774536 -20.231279 8.554709 -1.705319 0.356671 -0.822767 -0.000000 0.000000 0.000000 0.000000 0.000000 0.000000 0.000000 
